<svg width="1041" height="682" viewBox="0 0 1041 682" fill="none" xmlns="http://www.w3.org/2000/svg">
<path d="M75.3545 299.107C139.673 305.589 210.43 218.876 361.488 205.91" stroke="#EEBD3E" stroke-width="14" stroke-linecap="round"/>
<path d="M150.446 398.812C207.272 388.639 238.112 290.558 362.059 240.567" stroke="#EEBD3E" stroke-width="14" stroke-linecap="round"/>
<path d="M250.45 454.995C295.595 435.017 285.966 344.641 374.182 277.177" stroke="#EEBD3E" stroke-width="14" stroke-linecap="round"/>
<path d="M354.23 469.432C388.418 445.985 348.112 377.718 404.999 309.893" stroke="#EEBD3E" stroke-width="14" stroke-linecap="round"/>
<path d="M961.615 299.107C897.296 305.589 826.539 218.876 675.481 205.91" stroke="#EEBD3E" stroke-width="14" stroke-linecap="round"/>
<path d="M886.524 398.812C829.697 388.639 798.857 290.559 674.911 240.567" stroke="#EEBD3E" stroke-width="14" stroke-linecap="round"/>
<path d="M786.519 454.996C741.374 435.018 751.003 344.642 662.787 277.178" stroke="#EEBD3E" stroke-width="14" stroke-linecap="round"/>
<path d="M682.739 469.433C648.552 445.986 688.857 377.719 631.97 309.894" stroke="#EEBD3E" stroke-width="14" stroke-linecap="round"/>
<path d="M454.431 25.5514C454.431 25.5514 424.29 40.2739 409.904 52.8934L451.603 94.841L451.603 112.893C451.603 112.893 450.911 123.163 449.82 129.649C448.233 139.083 449.23 145.549 443.643 153.344C442.435 155.03 441.872 156.138 440.22 157.415C438.712 158.581 435.835 159.617 435.835 159.617L434.665 165.224L432.502 168.609L426.65 170.203L434.665 193.939L444.413 197.19L445.454 197.194L468.288 202.278L491.166 199.429L494.877 195.351L509.938 187.378L520.828 185.07L535.086 187.709L548.512 191.971L560.527 201.116L614.295 194.678L625.48 192.889L619.428 174.641L606.26 170.942L600.355 163.355C600.355 163.355 596.138 161.991 594.451 159.96C592.968 158.175 592.284 154.484 592.284 154.484C592.284 154.484 588.779 139.877 587.209 130.406C586.039 123.346 584.801 112.253 584.801 112.253L583.598 103.177L581.091 85.1859C581.091 85.1859 577.224 40.5774 541.667 22.2465C506.109 3.91556 454.431 25.5514 454.431 25.5514Z" fill="#22245B"/>
<path d="M426.65 170.203C421.136 173.738 432.164 166.667 426.65 170.203ZM426.65 170.203L434.665 193.939L444.413 197.19L445.454 197.194L468.288 202.278L491.166 199.429L494.877 195.351L509.938 187.378L520.828 185.07L535.086 187.709L548.512 191.971L560.527 201.116L614.295 194.678L625.48 192.889L619.428 174.641L606.26 170.942L600.355 163.355C600.355 163.355 596.138 161.991 594.451 159.96C592.968 158.175 592.284 154.484 592.284 154.484C592.284 154.484 588.779 139.877 587.209 130.406C586.039 123.346 584.801 112.253 584.801 112.253L583.598 103.177L581.091 85.1859C581.091 85.1859 577.224 40.5774 541.667 22.2465C506.109 3.91556 454.431 25.5514 454.431 25.5514C454.431 25.5514 424.29 40.2739 409.904 52.8934L451.603 94.841L451.603 112.893C451.603 112.893 450.911 123.163 449.82 129.649C448.233 139.083 449.23 145.549 443.643 153.344C442.435 155.03 441.872 156.138 440.22 157.415C438.712 158.581 435.835 159.617 435.835 159.617L434.665 165.224L432.502 168.609L426.65 170.203Z" stroke="#22245B"/>
<path d="M584.453 373.602L570.681 408.597L561.548 432.428L559.265 445.928V462.835L552.415 456.26H478.603C478.603 456.26 482.47 440.175 476.186 423.271C469.901 406.367 461.682 389.932 461.682 389.932L449.597 352.836L441.378 311.984C441.378 311.984 436.952 281.44 435.577 261.741C432.999 224.806 437.027 166.956 437.027 166.956H601.497L613.255 173.607L601.497 182.474L596.07 192.45L616.102 191.342L603.767 204.643C603.767 204.643 605.242 241.255 603.767 264.643C602.746 280.84 599.347 305.972 599.347 305.972L596.07 327.576L591.9 346.362L584.453 373.602Z" fill="#22245B" stroke="#22245B" stroke-width="3"/>
<path d="M456.213 179.32C455.884 169.913 449.087 161.925 439.879 159.998C225.55 115.153 194.631 118.249 11.611 190.463C9.91975 191.13 8.5055 192.474 7.7948 194.148V194.148C5.58977 199.341 10.4567 204.748 15.9048 203.29C212.85 150.588 224.307 152.606 430.99 200.041C444.13 203.057 456.684 192.8 456.213 179.32V179.32Z" fill="#22245B"/>
<path d="M584.787 182.219C585.116 172.812 591.913 164.824 601.121 162.897C815.45 118.052 846.369 121.148 1029.39 193.362C1031.08 194.029 1032.49 195.373 1033.21 197.047V197.047C1035.41 202.24 1030.54 207.647 1025.1 206.189C828.15 153.487 816.693 155.505 610.01 202.94C596.87 205.956 584.316 195.699 584.787 182.219V182.219Z" fill="#22245B"/>
<path d="M481.171 451.166C477.205 429.686 433.726 642.515 453.171 669.851C472.615 697.186 505.729 669.851 517.695 669.851C529.662 669.851 558.171 695.423 583.06 669.851C607.949 644.279 555.136 426.883 558.171 451.166L544.949 435.293H491.282L481.171 451.166Z" fill="#22245B"/>
</svg>
