<svg width="655" height="164" viewBox="0 0 655 164" fill="none" xmlns="http://www.w3.org/2000/svg">
<path d="M0.568 124L39.736 34.4H69.432L108.6 124H77.368L48.44 48.736H60.216L31.288 124H0.568ZM23.864 108.384L31.544 86.624H72.76L80.44 108.384H23.864ZM109.34 124V107.36L146.588 65.888L151.324 75.104H110.364V53.984H174.748V70.624L137.5 112.096L132.764 102.88H176.156V124H109.34ZM214.084 125.28C208.537 125.28 203.503 124.171 198.98 121.952C194.543 119.648 191.044 116.107 188.484 111.328C185.924 106.464 184.644 100.235 184.644 92.64V53.984H213.572V87.648C213.572 92.5973 214.383 96.0533 216.004 98.016C217.625 99.9787 219.844 100.96 222.66 100.96C224.367 100.96 225.945 100.533 227.396 99.68C228.932 98.7413 230.169 97.248 231.108 95.2C232.047 93.0667 232.516 90.2933 232.516 86.88V53.984H261.444V124H233.924V103.776L239.428 109.28C236.953 114.741 233.412 118.795 228.804 121.44C224.281 124 219.375 125.28 214.084 125.28Z" fill="white"/>
<path d="M275.171 124V34.4H305.379V100.576H345.827V124H275.171ZM353.275 124V53.984H382.203V124H353.275ZM367.739 48.352C362.448 48.352 358.224 46.944 355.067 44.128C351.91 41.312 350.331 37.8133 350.331 33.632C350.331 29.4507 351.91 25.952 355.067 23.136C358.224 20.32 362.448 18.912 367.739 18.912C373.03 18.912 377.254 20.2347 380.411 22.88C383.568 25.5253 385.147 28.9387 385.147 33.12C385.147 37.5573 383.568 41.2267 380.411 44.128C377.254 46.944 373.03 48.352 367.739 48.352ZM441.745 125.28C435.345 125.28 430.182 124 426.257 121.44C422.332 118.88 419.473 114.912 417.681 109.536C415.974 104.16 415.121 97.2907 415.121 88.928C415.121 80.6507 416.06 73.8667 417.937 68.576C419.814 63.2 422.716 59.232 426.641 56.672C430.652 54.0267 435.686 52.704 441.745 52.704C447.889 52.704 453.521 54.1547 458.641 57.056C463.761 59.9573 467.857 64.1387 470.929 69.6C474.001 74.976 475.537 81.4187 475.537 88.928C475.537 96.4373 474.001 102.923 470.929 108.384C467.857 113.76 463.761 117.941 458.641 120.928C453.521 123.829 447.889 125.28 441.745 125.28ZM395.025 124V29.024H423.953V63.328L422.673 88.928L422.545 114.528V124H395.025ZM434.833 102.752C436.966 102.752 438.886 102.24 440.593 101.216C442.3 100.192 443.665 98.656 444.689 96.608C445.713 94.4747 446.225 91.9147 446.225 88.928C446.225 85.856 445.713 83.3387 444.689 81.376C443.665 79.328 442.3 77.792 440.593 76.768C438.886 75.744 436.966 75.232 434.833 75.232C432.7 75.232 430.78 75.744 429.073 76.768C427.366 77.792 426.001 79.328 424.977 81.376C423.953 83.3387 423.441 85.856 423.441 88.928C423.441 91.9147 423.953 94.4747 424.977 96.608C426.001 98.656 427.366 100.192 429.073 101.216C430.78 102.24 432.7 102.752 434.833 102.752ZM484.65 124V53.984H512.17V75.104L507.69 69.088C509.823 63.6267 513.237 59.5307 517.93 56.8C522.623 54.0693 528.255 52.704 534.826 52.704V78.304C533.546 78.1333 532.394 78.0053 531.37 77.92C530.431 77.8347 529.45 77.792 528.426 77.792C524.074 77.792 520.49 78.944 517.674 81.248C514.943 83.4667 513.578 87.3493 513.578 92.896V124H484.65ZM581.056 125.28C572.523 125.28 565.056 123.701 558.656 120.544C552.341 117.387 547.435 113.077 543.936 107.616C540.437 102.069 538.688 95.84 538.688 88.928C538.688 81.8453 540.395 75.5733 543.808 70.112C547.307 64.6507 552.043 60.384 558.016 57.312C564.075 54.24 570.859 52.704 578.368 52.704C585.28 52.704 591.637 54.0693 597.44 56.8C603.328 59.5307 608.021 63.584 611.52 68.96C615.104 74.336 616.896 80.992 616.896 88.928C616.896 89.952 616.853 91.104 616.768 92.384C616.683 93.5787 616.597 94.688 616.512 95.712H562.624V81.76H601.152L590.272 85.472C590.272 82.7413 589.76 80.4373 588.736 78.56C587.797 76.5973 586.475 75.104 584.768 74.08C583.061 72.9707 581.013 72.416 578.624 72.416C576.235 72.416 574.144 72.9707 572.352 74.08C570.645 75.104 569.323 76.5973 568.384 78.56C567.445 80.4373 566.976 82.7413 566.976 85.472V89.824C566.976 92.8107 567.573 95.3707 568.768 97.504C569.963 99.6373 571.669 101.259 573.888 102.368C576.107 103.392 578.795 103.904 581.952 103.904C585.195 103.904 587.84 103.477 589.888 102.624C592.021 101.771 594.24 100.491 596.544 98.784L611.648 114.016C608.235 117.685 604.011 120.501 598.976 122.464C594.027 124.341 588.053 125.28 581.056 125.28Z" fill="#EEBD3E"/>
</svg>
